<svg xmlns="http://www.w3.org/2000/svg" width="14.375" height="14.4" viewBox="0 0 14.375 14.4"><path id="icon" d="M723.418 10337.8h-8.836a2.76 2.76 0 00-2.784 2.8v8.8a2.76 2.76 0 002.784 2.8h8.836a2.76 2.76 0 002.784-2.8v-8.8a2.76 2.76 0 00-2.784-2.8zm.877 1.6h.315v2.4h-2.41l-.008-2.4h2.1zm-5.295 3.2a2.4 2.4 0 11-2.41 2.4 2.43 2.43 0 012.41-2.4zm5.624 6.6a1.375 1.375 0 01-1.381 1.4h-8.511a1.374 1.374 0 01-1.381-1.4v-5.8h2a4.875 4.875 0 00-.29 1.6 3.939 3.939 0 007.877 0 4.875 4.875 0 00-.29-1.6h1.976v5.8z" transform="translate(-711.813 -10337.8)" fill="#fff" fill-rule="evenodd"/></svg>